<?xml version="1.0" encoding="UTF-8" standalone="no"?>
<!DOCTYPE svg PUBLIC "-//W3C//DTD SVG 1.1//EN" "http://www.w3.org/Graphics/SVG/1.1/DTD/svg11.dtd">
<svg viewBox="0 0 297 210" version="1.1" xmlns="http://www.w3.org/2000/svg" xmlns:xlink="http://www.w3.org/1999/xlink">
   <g transform="translate(0,-87)">
      <path
         style="fill:none;stroke:#000000;stroke-width:0.26458332px;stroke-linecap:butt;stroke-linejoin:miter;stroke-opacity:1"
         d="m 268.36309,163.19643 -3.02382,-4.91369 -5.48064,-8.50446 0.18899,-9.07143 0.56696,-5.85863 v -3.68527 l -2.12611,-1.18118 -2.64584,-0.14174 -2.03162,-0.56696 -0.33073,-1.65365 -1.70089,-0.75595 -1.79539,-0.61421 -1.51191,-0.70871 -1.55915,0.42523 -1.22842,1.98437 -1.13393,1.22843 -2.22061,-0.18899 -4.96093,-0.0472 -2.69308,-0.47247 -1.98438,-1.27567 -1.84263,-1.22842 -2.88207,-2.50409 -2.45685,-1.03944 -0.94494,0.89769 -1.88988,-0.28348 -5.48065,-2.3151 -2.31511,-1.79539 -1.79539,-0.85045 -2.17336,-0.61421 -1.18117,0.28348 -0.75596,1.08669 -1.65364,0.0945 -0.94494,0.0472 -0.66146,-1.93713 -0.94494,-0.23623 -2.4096,-0.51972 c 0,0 -0.51972,0 -0.85045,0 -0.33073,0 -0.8032,0.23623 -0.8032,0.23623 l -0.94494,9.87463 0.28349,1.46466 -3.02381,-0.42522 -1.41741,-0.23624 -1.03944,2.07887 -1.08668,1.6064 -0.99219,1.46466 -0.47247,2.3151 -0.33073,1.46466 -1.32291,-0.37798 -0.99219,-1.32291 -1.13393,0.18898 -1.13393,0.75596 -1.74814,-1.27567 -0.99218,-0.99219 c 0,0 -0.37798,0.85044 -0.37798,1.03943 0,0.18899 -0.14174,1.22843 -0.14174,1.22843 l -1.08668,0.75595 -1.55916,0.99219 -1.65364,0.42522 -6.18936,-1.79539 -2.88207,-1.88988 1.55915,-0.99219 -2.07887,-1.6064 -1.22842,-1.27567 -1.6064,-0.80319 -1.70089,-1.32292 -0.99219,-0.14174 -0.51972,2.26785 0.14174,1.6064 0.0945,2.03162 -0.0945,2.36236 -1.41741,1.32291 -1.32291,1.7009 -1.84264,-0.42523 -2.12611,-1.03943 -2.22061,-0.61421 -1.55916,0.66145 -0.7087,2.26786 -0.23623,2.36235 -0.85045,3.02381 -1.88988,2.26786 -2.45685,1.84263 -3.30729,0.8032 -3.1183,0.8032 -2.64584,1.6064 -3.16555,1.88988 -1.79538,1.79539 -2.07887,1.74814 0.18899,3.1183 2.69308,2.12612 0.80319,2.4096 1.84264,1.27567 1.13393,2.07886 0.66146,2.26786 -1.46466,2.5041 -0.8977,2.03162 -0.61421,1.22842 2.64584,0.51972 1.18117,-0.8977 1.84264,3.02381 0.0472,2.22061 -0.8032,1.74814 -0.37797,2.07887 -0.33073,1.51191 -1.93713,1.18117 -2.03162,-0.75595 -1.37016,-1.84263 -1.98438,-1.08669 -0.61421,-2.07886 0.7087,-0.70871 -0.94494,-1.08668 -0.75595,-1.37017 -2.36235,-0.7087 -1.88988,0.28348 -0.94494,1.41741 -2.17336,0.56697 -1.65365,-1.65365 -0.7087,-1.13393 -2.59859,-0.14174 -2.36235,-0.0472 -0.66146,0.23624 0.23623,-1.79539 v -0.75595 l -1.55915,0.94494 -2.07887,1.03944 c 0,0 1.93713,3.68526 1.93713,3.87425 0,0.18899 -7.89025,0 -7.89025,0 l -10.3471,1.74814 -5.858631,2.97656 -1.133928,2.92932 -3.49628,0.99219 -1.039435,1.70089 -1.133927,-0.28348 0.803198,-1.7009 -2.220611,0.0945 -2.409597,1.46466 -3.779761,0.37797 -1.039437,-2.92931 -1.417409,-1.13393 -0.897695,0.14174 -0.04725,-1.03943 1.748141,-0.47248 -0.94494,-0.89769 -3.732517,0.56696 -1.748139,-1.03943 -1.27567,-0.61421 -2.504091,-0.28348 -0.566965,1.08668 -3.307292,-0.8032 0.14174,-1.18118 -1.22842,-0.23623 0.14174,1.65364 -0.09449,2.26786 0.850445,1.22843 0.188989,1.55915 -1.464656,2.12611 -1.370166,1.7009 -1.41741,1.79538 -4.677455,2.31511 -0.566965,-0.70871 0.708705,-0.85044 0.330729,-0.99219 0.425225,-1.55915 0.803198,-1.08669 -1.937128,-0.37797 -1.039434,1.18117 -1.464657,-0.14174 -0.472471,0.42523 -0.425223,-2.22062 c 0,0 0.803198,-0.66145 0.992188,-0.80319 0.188989,-0.14175 -0.377976,-1.27567 -0.377976,-1.27567 l -1.700893,-1.98438 -1.086683,0.0945 c 0,0 -0.236233,0.23624 -0.236233,0.42523 0,0.18899 -0.330729,-1.18118 -0.330729,-1.18118 l -0.661459,-1.65364 -1.606399,0.33073 c 0,0 -0.755951,-0.37798 -1.13393,-0.37798 -0.377976,0 -1.653646,0.51972 -1.653646,0.51972 0,0 -0.661458,-1.27567 -0.661458,-1.46466 0,-0.18899 -0.425223,-0.94494 -0.425223,-0.94494 0,0 -1.606399,0.0472 -1.606399,0.33073 0,0.28348 -0.614211,1.65364 -0.614211,1.65364 0,0 -0.944939,0.33073 -1.133928,0.37798 -0.188989,0.0472 -1.889881,0.0472 -1.889881,0.0472 l -1.086681,0.28348 -0.661459,0.0945 c 0,0 -0.141739,0.42523 -0.04725,0.99219 0.09449,0.56696 0.283482,1.13393 0.755951,1.41741 0.472472,0.28348 0.04725,-0.14174 0.850448,0.37798 0.803198,0.51971 1.039434,0.8032 1.039434,0.8032 0,0 0.519716,1.84263 0.519716,2.07887 0,0.23623 0,0.37797 0,0.56696 0,0.18899 0,0.28348 -0.236233,0.61421 -0.236236,0.33073 -1.086684,0.8032 -1.086684,0.8032 0,0 -0.425222,0.0472 -0.425222,0.33073 0,0.28348 -0.04725,0.42522 -0.14174,0.75595 -0.0945,0.33073 -0.519719,0.66146 -0.566965,0.94494 -0.04725,0.28349 -0.283483,0.47247 -0.283483,0.47247 0,0 -0.708705,0.14175 -0.755951,0.47247 -0.04725,0.33073 0.377975,0.33073 0.377975,0.33073 l -0.614211,1.65365 c 0,0 0.04725,1.03943 0.141742,1.41741 0.09449,0.37798 -0.141742,0.47247 0,0.75595 0.14174,0.28348 0.14174,0.18899 0.425223,0.75595 0.283482,0.56697 0.377976,0.47247 0.472469,0.75596 0.0945,0.28348 0.803201,1.18117 0.850447,1.41741 0.04725,0.23623 0,0.14174 0.188987,0.51972 0.188989,0.37797 0.0945,0.28348 0.283483,0.89769 0.188989,0.61421 0,0.94494 0,1.18117 0,0.23624 -0.236234,0.66146 -0.236234,0.66146 l -0.283482,0.33073 c 0,0 2.031621,0.0945 2.409597,0.23624 0.377976,0.14174 1.795386,0.51971 1.984375,0.66146 0.188989,0.14174 1.086681,0.47246 1.889882,0.75595 0.803198,0.28348 1.181174,0.33073 1.370163,0.33073 0.188987,0 0,-1.32292 0.708705,0 0.708705,1.32291 0.566965,1.41741 0.566965,1.74814 0,0.33072 -0.141742,0.28348 -0.141742,0.7087 0,0.42523 -0.14174,0.66146 -0.14174,0.94494 0,0.28348 -0.18899,0.42522 -0.09449,0.61421 0.09449,0.18899 0.188987,0.42523 0.472469,0.47247 0.283483,0.0472 1.039435,0.18899 1.039435,0.18899 l 1.08668,0.23624 c 0,0 0.425225,0.28348 0.614212,0.37797 0.188989,0.0945 1.13393,0.33073 1.370163,0.51972 0.236236,0.18899 0.425225,0.23623 0.661459,0.42522 0.236236,0.18899 0.708707,0.56697 0.708707,0.56697 l 0.28348,0.37797 1.559153,0.8032 c 0,0 1.322916,-0.28348 1.511906,-0.28348 0.188986,0 1.27567,-0.75595 1.27567,-0.75595 l 0.897691,-1.03944 0.236236,-1.65364 h 0.850448 0.992187 l 0.944938,-1.74814 0.614212,-0.94494 0.897694,-0.18899 0.897694,1.03943 c 0,0 0.188987,1.22843 0.377976,1.22843 0.188987,0 1.370163,0.0472 1.370163,0.0472 0,0 0,1.65365 0,1.84264 0,0.18899 -0.330729,1.70089 -0.330729,1.70089 l 4.488469,0.33073 1.984375,-0.37798 1.039434,0.51972 1.322916,0.8032 -0.425225,1.88988 1.937129,0.33073 1.559152,0.23624 3.118302,0.47247 1.842636,0.0472 h 0.661458 l 1.511906,-2.55134 0.09449,-2.40959 0.755952,-1.22843 0.519718,-1.03943 1.27567,-0.47247 0.188987,-1.13393 1.41741,-0.47247 2.031624,-0.37798 1.795386,-0.51971 2.409597,0.56696 1.228423,-0.18899 0.897695,-0.75595 0.472469,-0.37798 0.519718,-0.37797 1.133927,1.18117 1.700893,-1.18117 c 0,0 1.039437,0.33073 1.27567,0.33073 0.236236,0 1.653646,0.85044 1.653646,0.85044 l 1.889881,0.66146 1.370163,-0.94494 2.97657,-0.94494 2.22061,-1.32292 2.03162,-0.56696 4.7247,-1.37017 1.37016,-0.23623 0.33073,1.65365 -0.56696,1.41741 -1.84263,0.7087 -1.37017,0.61421 c 0,0 0.42522,1.88989 0.61421,1.88989 0.18899,0 1.27567,1.37016 1.27567,1.37016 0,0 -0.33073,0.75595 -0.14174,0.75595 0.18899,0 1.46466,1.03943 1.46466,1.03943 0,0 1.6064,-0.14174 1.84263,-0.0472 0.23624,0.0945 1.03944,2.03162 1.13393,2.3151 0.0945,0.28348 -0.85044,1.74814 -0.85044,1.74814 l 2.69308,1.46466 0.7087,2.64583 4.58296,2.12612 4.91369,0.42522 4.25224,1.41741 10.39434,1.55916 8.22098,0.80319 6.75633,1.84264 5.71689,0.33073 5.5279,1.88988 2.83482,-0.18899 1.6064,1.74814 5.38616,0.0945 3.59077,-0.33073 0.37798,0.99219 2.12612,-0.0945 1.55915,2.88207 0.94494,-2.88207 2.78757,-1.22843 1.84263,-2.07886 2.12612,-0.18899 1.84263,-4.15774 2.5041,-1.13393 0.7087,0.61421 1.46466,-1.27567 5.6224,-0.42522 4.53571,-0.0945 3.35454,0.0945 0.61421,1.27567 2.36235,-0.94494 0.18899,-1.13393 1.70089,-0.7087 1.37017,-0.8977 2.74032,0.0945 3.2128,-0.85045 3.9215,1.32292 1.84264,1.03943 0.28348,-1.18117 -0.89769,-1.88989 -0.70871,-3.9215 1.55915,-1.18117 2.03163,-0.8977 2.07886,-1.32291 2.03163,-3.11831 1.55915,-1.70089 1.41741,-0.33073 3.07105,0.0945 2.03163,-0.18898 -1.55915,-0.75596 2.03162,-1.27567 c 0,0 -1.65365,-1.5119 -1.51191,-1.74814 0.14174,-0.23623 2.17337,-2.07886 2.17337,-2.07886 l -2.5041,-0.37798 v -1.74814 l -1.18117,-0.61421 0.23623,-0.89769 1.6064,-2.22062 c 0,0 -0.7087,-3.44903 -0.7087,-3.63802 0,-0.18899 0.0945,-2.45684 0.0945,-2.45684 l 1.22842,0.0945 2.74033,-0.89769 2.69308,-1.70089 0.8032,-4.53572 -1.55915,-3.68527 -4.29948,-0.42522 -2.83482,-1.03943 3.73251,-2.36236 0.94494,-1.70089 2.45685,-0.37797 1.5119,0.75595 1.88989,2.4096 2.3151,0.14174 1.46466,-1.46466 0.56696,0.99219 6.2366,-0.70871 -0.70871,-1.65364 -0.28347,-2.69309 0.23624,-0.80319 -1.7009,-1.65365 2.12611,-1.22842 0.23625,-3.11831 0.8032,-1.60639 1.60639,-1.32292 z"
         id="path263" />
      <!-- 
    <ellipse
       style="fill:#00b600;fill-opacity:1;stroke:#359945;stroke-width:0.26499999;stroke-miterlimit:4;stroke-dasharray:none;stroke-opacity:1"
       id="wien"
       cx="244.50334"
       cy="155.3298"
       rx="0.3"
       ry="0.3"/>
    <ellipse
       style="fill:#00b600;fill-opacity:1;stroke:#359945;stroke-width:0.26499999;stroke-miterlimit:4;stroke-dasharray:none;stroke-opacity:1"
       id="linz"
       cx="179.01897"
       cy="150.43974"
       rx="0.56696427"
       ry="0.47247022"
       inkscape:label="#path267" />
    <ellipse
       style="fill:#00b600;fill-opacity:1;stroke:#359945;stroke-width:0.26499999;stroke-miterlimit:4;stroke-dasharray:none;stroke-opacity:1"
       id="salzburg"
       cx="140.04018"
       cy="172.36235"
       rx="0.37797621"
       ry="0.33072916"
       inkscape:label="#path269" />
    <circle
       style="fill:#00b600;fill-opacity:1;stroke:#359945;stroke-width:0.26499999;stroke-miterlimit:4;stroke-dasharray:none;stroke-opacity:1"
       id="innsbruck"
       cx="88.21019"
       cy="198.44272"
       r="0.47247022"
       inkscape:label="#path271" />
    <ellipse
       style="fill:#00b600;fill-opacity:1;stroke:#359945;stroke-width:0.26499999;stroke-miterlimit:4;stroke-dasharray:none;stroke-opacity:1"
       id="Klagenfurt"
       cx="180.03477"
       cy="227.31064"
       rx="0.68508178"
       ry="0.1889881"
       inkscape:label="#path273" />
    <ellipse
       style="fill:#00b600;fill-opacity:1;stroke:#359945;stroke-width:0.26499999;stroke-miterlimit:4;stroke-dasharray:none;stroke-opacity:1"
       id="graz"
       cx="215.25743"
       cy="208.05748"
       rx="0.47247022"
       ry="0.49609375"
       inkscape:label="#path275" />
       -->
   </g>
</svg>